# xmcd
#
# Track frame offsets: 
#        150
#        16620
#        30502
#        51343
#        64444
#        80631
#        94695
#        109331
#        124779
#
# Disc length: 1851 seconds
#
# Revision: 0
# Processed by: cddbd v1.5.2PL0 Copyright (c) Steve Scherf et al.
# Submitted via: ExactAudioCopy v0.99pb4
#
DISCID=72073909
DTITLE=Lorrie Morgan - Something in Red
DYEAR=1991
DGENRE=Corporate Country
TTITLE0=Autumn's Not That Cold
TTITLE1=We Both Walk
TTITLE2=Something in Red
TTITLE3=Except for Monday
TTITLE4=A Picture of Me (Without You)
TTITLE5=Tears on My Pillow
TTITLE6=Best Woman Wins (Duet with Dolly Parton)
TTITLE7=In Tears
TTITLE8=Hand Over Your Heart
EXTD=
EXTT0=
EXTT1=
EXTT2=
EXTT3=
EXTT4=
EXTT5=
EXTT6=
EXTT7=
EXTT8=
PLAYORDER=
